<?xml version="1.0" standalone="no"?>
<!DOCTYPE svg PUBLIC "-//W3C//DTD SVG 20010904//EN"
 "http://www.w3.org/TR/2001/REC-SVG-20010904/DTD/svg10.dtd">
<svg version="1.0" xmlns="http://www.w3.org/2000/svg"
 width="1920.000000pt" height="578.000000pt" viewBox="0 0 1920.000000 578.000000"
 preserveAspectRatio="xMidYMid meet">

<g transform="translate(0.000000,578.000000) scale(0.100000,-0.100000)"
fill="#000000" stroke="none">
<path d="M6898 703 c-15 -14 -24 -15 -65 -5 -54 12 -86 0 -98 -38 -9 -29 0
-36 29 -20 19 10 35 10 67 2 52 -13 86 -2 99 33 6 15 10 31 10 36 0 15 -24 10
-42 -8z"/>
<path d="M5943 550 c-51 -23 -83 -70 -83 -123 0 -66 26 -105 104 -155 39 -25
81 -54 94 -65 25 -24 29 -59 7 -77 -23 -19 -98 -13 -150 11 -25 12 -47 20 -49
18 -2 -2 -1 -33 3 -69 l6 -65 65 -13 c105 -22 208 9 242 71 21 40 27 91 17
132 -13 48 -57 91 -143 139 -77 43 -92 63 -70 94 20 29 68 29 127 -2 l47 -23
0 63 0 62 -50 11 c-73 16 -119 13 -167 -9z"/>
<path d="M6787 479 c-25 -52 -85 -176 -136 -276 l-91 -183 63 0 64 0 18 40 18
40 107 0 107 0 18 -40 18 -40 64 0 c34 0 63 2 63 4 0 6 -259 538 -264 544 -3
3 -25 -37 -49 -89z m80 -209 l31 -80 -70 0 c-38 0 -68 4 -66 8 41 101 64 152
68 152 3 0 19 -36 37 -80z"/>
<path d="M7637 554 c-56 -17 -122 -78 -152 -139 -12 -25 -21 -68 -23 -116 -5
-97 20 -159 88 -223 88 -82 203 -95 308 -35 90 51 135 131 135 244 1 199 -168
327 -356 269z m157 -123 c135 -89 65 -336 -88 -307 -73 14 -116 73 -116 161 0
75 36 138 90 158 32 12 86 6 114 -12z"/>
<path d="M8800 555 c-107 -33 -182 -142 -182 -262 1 -124 51 -211 150 -260 72
-36 162 -38 235 -5 l47 21 0 65 0 65 -52 -27 c-124 -64 -239 -13 -254 114 -19
155 127 239 259 150 l35 -24 7 59 c8 71 2 81 -62 103 -56 19 -122 19 -183 1z"/>
<path d="M9650 561 c-88 -28 -162 -104 -186 -189 -41 -139 29 -295 155 -350
56 -24 157 -21 213 7 104 50 165 163 156 286 -8 100 -63 182 -151 227 -45 22
-145 33 -187 19z m141 -134 c67 -45 89 -148 49 -227 -53 -104 -182 -104 -237
0 -77 145 62 312 188 227z"/>
<path d="M10438 296 l-55 -277 56 3 56 3 21 113 c12 62 24 115 26 117 2 3 37
-54 78 -125 41 -72 77 -130 80 -130 3 0 36 59 73 131 38 72 70 129 72 127 2
-2 10 -43 19 -93 30 -162 19 -145 87 -145 32 0 59 1 59 3 0 10 -111 541 -114
544 -4 4 -27 -37 -131 -229 -32 -60 -61 -108 -64 -108 -3 0 -45 69 -93 153
-48 83 -93 160 -101 171 -12 16 -20 -13 -69 -258z"/>
<path d="M13936 308 c-71 -145 -131 -269 -133 -275 -4 -10 11 -13 57 -13 l62
0 15 40 16 40 109 0 110 0 15 -40 16 -40 64 0 c34 0 63 2 63 5 0 9 -250 529
-259 538 -4 4 -65 -111 -135 -255z m163 -37 c17 -40 31 -75 31 -77 0 -2 -31
-4 -70 -4 l-69 0 20 48 c11 26 27 62 35 81 8 19 16 32 18 30 2 -2 18 -37 35
-78z"/>
<path d="M14890 561 c-85 -28 -150 -88 -180 -168 -80 -215 95 -429 314 -383
80 16 94 32 102 113 l7 68 -38 -25 c-100 -68 -216 -51 -258 37 -25 52 -22 136
6 177 36 53 69 72 124 72 53 0 84 -11 120 -45 13 -11 25 -19 27 -16 2 2 6 32
8 67 l4 63 -40 21 c-44 23 -153 33 -196 19z"/>
<path d="M16320 561 c-139 -45 -220 -190 -190 -335 43 -207 286 -292 437 -153
60 55 85 107 91 189 9 123 -40 219 -137 272 -57 30 -152 43 -201 27z m156
-142 c39 -36 54 -73 54 -131 0 -92 -48 -154 -126 -165 -71 -9 -140 56 -150
143 -8 66 20 135 68 164 44 28 118 23 154 -11z"/>
<path d="M17100 296 l0 -276 55 0 55 0 0 140 c0 77 3 140 8 140 4 0 79 -67
167 -150 88 -82 163 -150 168 -150 4 0 7 124 7 275 l0 275 -60 0 -60 0 0 -146
0 -146 -130 123 c-72 68 -149 139 -170 158 l-40 34 0 -277z"/>
<path d="M18128 400 c-47 -96 -108 -221 -137 -277 l-51 -103 64 0 64 0 16 40
16 40 109 0 109 0 16 -40 16 -40 65 0 64 0 -18 43 c-11 23 -71 148 -134 277
l-115 235 -84 -175z m120 -137 l30 -73 -70 0 c-52 0 -69 3 -65 13 40 100 62
146 68 140 4 -5 20 -41 37 -80z"/>
<path d="M4509 293 c64 -142 122 -267 128 -278 10 -18 14 -14 36 35 83 187
211 468 218 483 9 15 4 17 -53 17 l-63 0 -60 -140 c-33 -77 -62 -140 -65 -140
-3 0 -33 63 -65 140 l-59 140 -67 0 -67 0 117 -257z"/>
<path d="M5290 285 l0 -265 65 0 65 0 0 265 0 265 -65 0 -65 0 0 -265z"/>
<path d="M11430 285 l0 -265 65 0 65 0 0 94 0 94 48 6 c75 11 106 24 139 59
61 63 64 164 6 219 -48 46 -92 58 -213 58 l-110 0 0 -265z m228 149 c14 -9 22
-24 22 -43 0 -43 -28 -71 -78 -78 l-42 -6 0 78 0 77 38 -7 c20 -3 47 -13 60
-21z"/>
<path d="M12220 360 c0 -208 6 -239 58 -293 53 -56 131 -77 217 -57 62 14 109
49 138 103 20 39 22 58 25 240 l4 197 -56 0 -56 0 0 -169 c0 -93 -4 -181 -9
-194 -16 -42 -51 -67 -94 -67 -93 0 -107 34 -107 260 l0 170 -60 0 -60 0 0
-190z"/>
<path d="M13060 495 l0 -55 85 0 85 0 0 -210 0 -210 65 0 65 0 0 210 0 209 83
3 82 3 3 53 3 52 -235 0 -236 0 0 -55z"/>
<path d="M15560 285 l0 -266 63 3 62 3 3 263 2 262 -65 0 -65 0 0 -265z"/>
<path d="M18870 285 l0 -265 165 0 165 0 0 55 0 54 -102 3 -103 3 -3 208 -2
207 -60 0 -60 0 0 -265z"/>
</g>
</svg>
